<svg width="39" height="41" viewBox="0 0 39 41" fill="none" xmlns="http://www.w3.org/2000/svg">
    <path
        d="M21.0435 40.9252C30.9587 40.9252 38.9965 31.7638 38.9965 20.4626C38.9965 9.16142 30.9587 0 21.0435 0C11.1284 0 3.09058 9.16142 3.09058 20.4626C3.09058 31.7638 11.1284 40.9252 21.0435 40.9252Z"
        fill="#D8B525" />
    <path
        d="M17.9959 41.0001C27.9347 41.0001 35.9917 31.8387 35.9917 20.5375C35.9917 9.23637 27.9347 0.0749512 17.9959 0.0749512C8.05703 0.0749512 0 9.23637 0 20.5375C0 31.8387 8.05703 41.0001 17.9959 41.0001Z"
        fill="#F6D23C" />
    <path
        d="M17.9958 39.2224C27.0714 39.2224 34.4286 30.8569 34.4286 20.5375C34.4286 10.2181 27.0714 1.85254 17.9958 1.85254C8.92029 1.85254 1.56311 10.2181 1.56311 20.5375C1.56311 30.8569 8.92029 39.2224 17.9958 39.2224Z"
        fill="#F6D23C" stroke="white" stroke-width="2" stroke-linecap="round" stroke-linejoin="round" />
    <path
        d="M29.8107 27.0744H27.4355C27.377 27.0698 27.3226 27.0427 27.2839 26.9988C27.2451 26.9549 27.2251 26.8977 27.2281 26.8393V19.4579C27.2288 19.402 27.2505 19.3483 27.2888 19.3075C27.3272 19.2666 27.3795 19.2415 27.4355 19.2371L29.8107 19.8106C29.8669 19.8183 29.9185 19.846 29.956 19.8885C29.9934 19.931 30.0142 19.9856 30.0146 20.0422V26.825C30.018 26.8548 30.0155 26.885 30.007 26.9137C29.9986 26.9425 29.9844 26.9693 29.9654 26.9926C29.9464 27.0158 29.923 27.035 29.8964 27.0491C29.8698 27.0631 29.8406 27.0717 29.8107 27.0744Z"
        fill="#231F20" />
    <path
        d="M28.641 18.1434C29.7197 18.1434 30.5941 17.1497 30.5941 15.924C30.5941 14.6982 29.7197 13.7046 28.641 13.7046C27.5624 13.7046 26.688 14.6982 26.688 15.924C26.688 17.1497 27.5624 18.1434 28.641 18.1434Z"
        fill="#231F20" />
    <path
        d="M10.8419 16.8397L9.13568 22.7997L7.59042 17.456C7.57496 17.3878 7.53452 17.3277 7.47698 17.2875C7.41944 17.2473 7.34894 17.2299 7.27922 17.2387L4.98636 17.6128C4.95441 17.6212 4.92456 17.6362 4.89868 17.6567C4.87281 17.6772 4.85147 17.7028 4.83602 17.7319C4.82057 17.761 4.81133 17.793 4.80888 17.8258C4.80644 17.8587 4.81085 17.8916 4.82182 17.9227L7.52246 26.4725C7.58406 26.6553 7.68405 26.8229 7.81577 26.9642C7.94236 27.0511 8.0954 27.0914 8.24859 27.0782H9.95124C10.1028 27.0829 10.2516 27.0364 10.3733 26.9463C10.505 26.8051 10.605 26.6375 10.6666 26.4547L13.818 16.4265C13.8295 16.3974 13.8335 16.3658 13.8295 16.3347C13.8255 16.3037 13.8136 16.2741 13.7951 16.2489C13.7765 16.2236 13.7518 16.2035 13.7233 16.1903C13.6947 16.1771 13.6633 16.1714 13.632 16.1736L11.0887 16.5904C11.0295 16.6072 10.9757 16.6391 10.9324 16.6828C10.8892 16.7264 10.858 16.7805 10.8419 16.8397Z"
        fill="#231F20" />
    <path
        d="M22.2417 15.0407V22.1655C22.2417 23.3412 21.394 24.3386 20.3567 24.303C19.3193 24.2674 18.536 23.3483 18.536 22.1976V15.5929C18.5381 15.5629 18.5337 15.5327 18.5232 15.5045C18.5126 15.4764 18.4961 15.4508 18.4747 15.4295C18.4533 15.4082 18.4276 15.3917 18.3993 15.3812C18.371 15.3707 18.3408 15.3663 18.3106 15.3684L16.1644 15.7247C16.0746 15.7447 15.9948 15.7958 15.9392 15.8688C15.8835 15.9418 15.8556 16.0321 15.8604 16.1237V22.1406C15.8604 24.9692 17.8349 27.3311 20.3245 27.3738C22.8141 27.4166 24.9281 25.0867 24.9281 22.219V14.5562C24.9297 14.5269 24.925 14.4977 24.9144 14.4704C24.9037 14.443 24.8874 14.4183 24.8664 14.3977C24.8454 14.3772 24.8203 14.3613 24.7927 14.3511C24.7651 14.341 24.7357 14.3368 24.7063 14.3389L22.51 14.6951C22.4331 14.7149 22.365 14.7596 22.3165 14.8222C22.2679 14.8847 22.2416 14.9616 22.2417 15.0407Z"
        fill="#231F20" />
</svg>